<?xml version="1.0" encoding="UTF-8" standalone="no"?>
<!-- Created with Inkscape (http://www.inkscape.org/) -->

<svg
   width="94.318687mm"
   height="91.915504mm"
   viewBox="0 0 94.318687 91.915504"
   version="1.1"
   id="svg1"
   inkscape:version="1.3 (0e150ed6c4, 2023-07-21)"
   sodipodi:docname="faq.svg"
   inkscape:export-filename="faq.png"
   inkscape:export-xdpi="96"
   inkscape:export-ydpi="96"
   xmlns:inkscape="http://www.inkscape.org/namespaces/inkscape"
   xmlns:sodipodi="http://sodipodi.sourceforge.net/DTD/sodipodi-0.dtd"
   xmlns="http://www.w3.org/2000/svg"
   xmlns:svg="http://www.w3.org/2000/svg">
  <sodipodi:namedview
     id="namedview1"
     pagecolor="#ffffff"
     bordercolor="#000000"
     borderopacity="0.25"
     inkscape:showpageshadow="2"
     inkscape:pageopacity="0.0"
     inkscape:pagecheckerboard="true"
     inkscape:deskcolor="#d1d1d1"
     inkscape:document-units="mm"
     inkscape:zoom="0.9007973"
     inkscape:cx="-23.867745"
     inkscape:cy="142.65141"
     inkscape:window-width="1536"
     inkscape:window-height="953"
     inkscape:window-x="-8"
     inkscape:window-y="-8"
     inkscape:window-maximized="1"
     inkscape:current-layer="layer1" />
  <defs
     id="defs1" />
  <g
     inkscape:label="Layer 1"
     inkscape:groupmode="layer"
     id="layer1"
     transform="translate(-70.609475,-113.04782)">
    <path
       id="path1-6"
       style="fill:#ffffff;fill-opacity:1;stroke:#000000;stroke-width:4.247;stroke-linecap:round;stroke-linejoin:round;stroke-dasharray:none"
       d="m 130.53791,136.18246 a 32.26683,32.26683 0 0 1 32.26675,32.26676 32.26683,32.26683 0 0 1 -10.47895,23.72827 l 0.19121,-0.1049 4.6054,10.7673 -18.47277,-3.16001 0.17467,-0.0956 a 32.26683,32.26683 0 0 1 -8.28631,1.13223 32.26683,32.26683 0 0 1 -32.267297,-32.26729 32.26683,32.26683 0 0 1 32.267297,-32.26676 z" />
    <rect
       style="fill:#010101;fill-opacity:1;stroke:#000000;stroke-width:0.1;stroke-linecap:round;stroke-linejoin:round;stroke-dasharray:none"
       id="rect2"
       width="41.70842"
       height="5.9973927"
       x="108.7408"
       y="164.25305"
       rx="2.2936702"
       ry="3.432987" />
    <rect
       style="fill:#010101;fill-opacity:1;stroke:#000000;stroke-width:0.1;stroke-linecap:round;stroke-linejoin:round;stroke-dasharray:none"
       id="rect2-7"
       width="41.70842"
       height="5.9973927"
       x="108.7408"
       y="151.71458"
       rx="2.2936702"
       ry="3.432987" />
    <rect
       style="fill:#010101;fill-opacity:1;stroke:#000000;stroke-width:0.1;stroke-linecap:round;stroke-linejoin:round;stroke-dasharray:none"
       id="rect2-7-3"
       width="41.70842"
       height="5.9973927"
       x="108.7408"
       y="176.79152"
       rx="2.2936702"
       ry="3.432987" />
    <path
       id="path1"
       style="fill:#ffffff;fill-opacity:1;stroke:#000000;stroke-width:4.247;stroke-linecap:round;stroke-linejoin:round;stroke-dasharray:none"
       d="m 104.99973,115.17132 a 32.26683,32.26683 0 0 0 -32.266755,32.26676 32.26683,32.26683 0 0 0 10.478947,23.72827 l -0.191202,-0.1049 -4.605404,10.7673 18.472774,-3.16001 -0.174666,-0.0956 a 32.26683,32.26683 0 0 0 8.286306,1.13223 32.26683,32.26683 0 0 0 32.26729,-32.26729 32.26683,32.26683 0 0 0 -32.26729,-32.26676 z" />
    <text
       xml:space="preserve"
       style="font-size:50.8px;font-family:Arial;-inkscape-font-specification:Arial;fill:#000000;fill-opacity:1;stroke:#000000;stroke-width:0.1;stroke-linecap:round;stroke-linejoin:round;stroke-dasharray:none"
       x="91.034958"
       y="166.9919"
       id="text2"><tspan
         id="tspan2"
         style="font-size:50.8px;fill:#000000;fill-opacity:1;stroke-width:0.1;stroke-dasharray:none"
         x="91.034958"
         y="166.9919"
         sodipodi:role="line">?</tspan></text>
  </g>
</svg>
