<?xml version="1.0" encoding="UTF-8" standalone="no"?>
<!-- Created with Inkscape (http://www.inkscape.org/) -->

<svg
   width="98.957001mm"
   height="98.957001mm"
   viewBox="0 0 98.957001 98.957001"
   version="1.1"
   id="svg1"
   inkscape:version="1.3 (0e150ed6c4, 2023-07-21)"
   sodipodi:docname="menuClose.svg"
   inkscape:export-filename="..\..\public\images\menuClose.png"
   inkscape:export-xdpi="96"
   inkscape:export-ydpi="96"
   xmlns:inkscape="http://www.inkscape.org/namespaces/inkscape"
   xmlns:sodipodi="http://sodipodi.sourceforge.net/DTD/sodipodi-0.dtd"
   xmlns="http://www.w3.org/2000/svg"
   xmlns:svg="http://www.w3.org/2000/svg">
  <sodipodi:namedview
     id="namedview1"
     pagecolor="#ffffff"
     bordercolor="#000000"
     borderopacity="0.25"
     inkscape:showpageshadow="2"
     inkscape:pageopacity="0.0"
     inkscape:pagecheckerboard="true"
     inkscape:deskcolor="#d1d1d1"
     inkscape:document-units="mm"
     showguides="false"
     inkscape:zoom="1.2739198"
     inkscape:cx="211.94427"
     inkscape:cy="201.34705"
     inkscape:window-width="1536"
     inkscape:window-height="953"
     inkscape:window-x="-8"
     inkscape:window-y="-8"
     inkscape:window-maximized="1"
     inkscape:current-layer="layer1" />
  <defs
     id="defs1" />
  <g
     inkscape:label="Layer 1"
     inkscape:groupmode="layer"
     id="layer1"
     transform="translate(-74.257918,-42.896384)">
    <path
       style="fill:none;stroke:#000000;stroke-width:6.65745;stroke-dasharray:none"
       d="m 143.43759,70.794732 c 0.10236,1.89e-4 0.17922,0.03207 0.22689,0.09804 0.38144,0.527758 -1.24157,3.033122 -3.63895,5.617456 l -14.71227,15.859939 15.00184,15.988073 c 2.41124,2.56972 3.9562,4.96738 3.46382,5.37624 -0.49237,0.40884 -2.83,-1.33076 -5.24124,-3.9005 l -14.7968,-15.769203 -14.91692,16.080093 c -2.39737,2.58433 -4.63453,4.23991 -5.01598,3.71215 -0.38144,-0.52775 1.24157,-3.03313 3.63895,-5.61746 L 122.15961,92.379626 107.15736,76.391548 c -2.41124,-2.569723 -3.95581,-4.967812 -3.46342,-5.376659 0.49238,-0.408846 2.83001,1.330762 5.24124,3.900486 l 14.7968,15.76921 14.9165,-16.079667 c 2.09772,-2.261292 4.0726,-3.811517 4.78911,-3.810186 z"
       id="path1" />
    <path
       style="fill:none;stroke:#000000;stroke-width:7.94784;stroke-dasharray:none"
       d="M 123.73666,46.870301 A 45.504668,45.504671 0 0 0 78.231834,92.375135 45.504668,45.504671 0 0 0 123.73666,137.87947 45.504668,45.504671 0 0 0 169.241,92.375135 45.504668,45.504671 0 0 0 123.73666,46.870301 Z"
       id="path3" />
  </g>
</svg>
